<?xml version="1.0" encoding="utf-8"?>
<!-- Generator: Adobe Illustrator 25.4.1, SVG Export Plug-In . SVG Version: 6.00 Build 0)  -->
<svg version="1.1" id="Layer_1" xmlns="http://www.w3.org/2000/svg" xmlns:xlink="http://www.w3.org/1999/xlink" x="0px" y="0px"
	 viewBox="0 0 720 720" style="enable-background:new 0 0 720 720;" xml:space="preserve">
<style type="text/css">
	.st0{fill:#EAA94B;}
	.st1{fill:#010101;}
	.st2{fill:#3A2217;}
	.st3{fill:#A4963D;}
	.st4{fill:#B86E4C;}
	.st5{fill:none;stroke:#A4963D;stroke-width:10;stroke-miterlimit:10;}
	.st6{fill:#EFECE6;}
</style>
<path class="st0" d="M-336.3,357.5c0.1-0.2,5.2-19,17.2-19.6c0.1,0,0.2,0,0.3,0c1.8,1,6.8,5.1,3.8,16.7c-1.8,7,0.2,12.9,5.3,16.1
	c10.1,6.2,29,0.4,45.8-14.3l3.1-2.7c24-20.9,56.9-49.4,54.4-92.2c0-0.5-0.1-12.4,10.9-13l0,0c11-0.5,13.2,5.4,16,12.9l0.6,1.7
	c1.8,4.6,9.8,8.8,20.2,8.1c20.2-1.5,57.9-21.8,83.8-140.7c0.2-1.3,5.6-32.9-15-68.4c-0.2-1.6-0.4-6.1,2-8.8c1.8-2,4.9-2.8,9.3-2.5
	c12.2,1,25.8,1.2,32.7-8c5.7-7.7,5.1-20-1.8-37.6c-13-33.1-29.5-51.3-40.4-63.3c-2.6-2.8-4.8-5.3-6.7-7.6
	c0-11.8-1.5-87.5-28.6-142.4c-1.4-4.3-5.9-9.7-12.7-7.7c-1,0.3-1.8,0.9-2.4,1.8c-0.3,0.5-3,5.3,0.5,12.7
	c2.5,5.3,20.8,53.1,23.8,96.7c-0.6,2.3-4.8,14.2-27.4,18.5c-14.6,2.8-87.4,18.4-84.3,53.9c2.3,26.2,8.2,32.7,15.7,40.8
	c0.9,1,1.8,2,2.8,3c2.6,2.9,5.5,7.2,4.8,10.7c-0.5,2.7-3.2,5.2-7.8,7.5c-29.3,14.4-58,19.5-85.4,15c-40.8-6.6-48.4,12.9-53,24.5
	c-0.4,0.9-0.7,1.9-1.1,2.7c-5.8,13.7-3.4,45.8,17.7,57.3c10.2,5.6,14.7,15.5,15.5,23c0.6,5.9-0.9,11.2-3.9,13.7
	c-7.7,6.6-33.5,12.3-81.2-7.6c-18.5-7.7-37.4-7.1-54.5,1.8c-20.8,10.8-35.4,32.1-38.6,46.6c-4.5,20.3,2.1,30.7,9.8,42.8
	c0.9,1.5,1.9,3,2.9,4.6c5,8.1,5.5,11,5,12c-0.2,0.5-1.5,2.1-9.4,3.3c-21.6,3.3-71.5,15-69.6,51.4c2,37.4,28.4,39.4,47.7,40.9
	l1.2,0.1c10.2,0.8,13.1,2.2,13.9,2.7c-0.2,0.6-1,2.1-4,5.2c-5.7,5.9-9.6,19.1-5.4,32c3.4,10.3,12.9,23.5,38.9,27.8
	c6.7,1.1,13.6,1.5,20.5,1.1c42.7-2,86.2-30.6,107-72.6C-336.5,358-336.4,357.8-336.3,357.5z M-429.7,317.5
	c38-16.7,74.8-35.7,109.4-58c34.7-22.2,66.8-48,95.5-77.2c14.3-14.7,27.6-30.2,40-46.6c12.4-16.3,23.6-33.5,33.6-51.4
	s18.8-36.5,26.2-55.7c7.4-19.2,13.6-39,17.3-59.4c-1.3,20.8-6.1,41.2-12.2,61.2c-6.3,19.9-14.2,39.4-23.8,58
	c-9.4,18.7-20.6,36.5-32.9,53.6c-12.3,17-26,33-40.5,48.1c-7.5,7.3-14.9,14.8-22.9,21.6c-7.7,7.1-15.9,13.6-24.1,20.2
	c-16.7,12.6-33.8,24.7-52,35.1C-351.8,288.1-390.1,305.1-429.7,317.5z"/>
<path class="st1" d="M946.6,579.5c13.4,12.4,29.9,27.2,56.1,35.8c27.7,9,51,6.1,82.9,2c29.8-3.8,43.9-10.3,53.2-16
	c10-6.1,17.2-12.8,21.8-17.7c2.3-0.2,16.7-1.9,24.7-14c3.2-4.8,4.3-9.6,4.7-12.8c7.4-5,17.9-13.6,26.1-27.2
	c10.3-17,13.7-36.5,11.7-63.6c-1.6-20.8-6.4-47-44.6-129.4c-18.7-40.4-32-65.2-50.2-91.7c-18.8-27.3-32-40.6-49.6-50.1
	c-19-10.2-39.2-13.7-45-14.7c-13.9-2.3-25.9-2.4-34.7-2c-9.2-20.2-17.9-36.7-24.8-49.1c-8.4-15.2-15.3-26.5-22.7-37.3
	c-10.4-15.2-15.7-22.9-23.5-29.1c-11.5-9-13-4.6-34.8-16.9C881.3,36.4,874,29.2,866,32.4c-5.2,2.1-8.4,7.6-9.3,9
	c-3.7,6.3-3.4,12.4-3.2,14.6c3.2,1.5,8.2,3.8,14.3,6.5c19.1,8.3,24.7,9.2,31.9,13.3c9,5.1,13.9,12,23.9,25.8
	c14,19.4,21.3,37,27.7,52.8c5.3,13.1,9,24.4,11.5,32.8c-6.3,0.5-15.4,1.8-25.5,5.6c-21.8,8.3-34.3,22.8-39.6,29.1
	c-14.7,17.4-21,36.3-24.8,53.3c2.1,0.8,4.4,1.6,6.8,2.4c-2,0.2-4.5,0.5-7.5,0.8c-0.3,1.3-0.5,2.6-0.8,3.9
	c-8.5,43.7-21.7,111.2,8.1,192.1C887.4,495.6,904.5,540.6,946.6,579.5z M1139.2,571.6c-1.7,2.2-3.7,3.8-5.7,5.4
	c-2,1.5-3.8,2.7-5.9,4.1c-2.1,1.3-4.5,2.6-7.3,3.4c-2.8,0.8-6,1-9.1,0.3c-1.6-0.4-2.7-0.8-4-1.4c-1.3-0.6-2.7-1.4-3.9-2.4
	c-2.5-2.1-4.1-4.8-5-7.2c-0.5-1.2-0.9-2.3-1.3-3.7c-0.4-1.3-0.3-2-0.3-2.8s0.1-1.5,0.2-2.2c0.4-2.8,1.6-5.6,3.4-7.8
	c0.9-1.1,1.9-2.1,3-2.9c1.1-0.8,2-1.3,3-1.9c4-2.3,8.5-4.8,13.3-4.8c-4.2,2.1-7.3,5.2-10.5,8.4c-0.7,0.8-1.7,1.6-2.3,2.4
	c-0.6,0.7-1.1,1.5-1.5,2.3c-0.7,1.6-1.2,3.4-1.1,5.1c0,0.4,0,0.9,0.1,1.2c0,0.3,0.2,0.8,0.2,0.6c0.4,0.8,0.9,1.9,1.3,2.7
	c1,1.8,1.9,3,3,3.8c0.6,0.4,1.2,0.7,2,1s1.8,0.6,2.5,0.7c1.4,0.2,2.9,0.2,4.5-0.3c1.6-0.4,3.3-1.3,5.1-2.3c1.8-1,3.8-2.3,5.5-3.4
	c3.5-2.3,6.4-4.9,7.5-7.8c1.2-2.9,0.5-6.7-2-10c-2.2-3.2-6.3-5.3-11-5.6c4.4-1.7,10-1,14.3,2.4c2,1.7,3.7,3.8,4.9,6.4
	c1.1,2.6,1.5,5.7,0.9,8.7C1142.4,566.9,1141,569.5,1139.2,571.6z M1216.2,463.7c0.1,12.8-3,25.9-8.6,37.4
	c-2.8,5.8-6.4,11.3-10.5,16.4c-4.2,5-9.1,9.4-14.4,13.1c-10.7,7.4-23.4,11.5-35.8,11.6c11.8-4,22.5-9.7,31.4-17.5
	c8.9-7.7,15.9-17.2,21-27.7c5.2-10.7,8.5-21.9,9.7-33.7c1.2-11.8,0.4-23.9-1.8-36.2C1213,438.2,1216,450.9,1216.2,463.7z
	 M1012.5,284.3c5.2,14.7,10.2,29.5,15.5,44.1c5.2,14.7,10.4,29.4,15.8,44c10.6,29.4,21.6,58.3,35.5,86s30,54.4,47.8,80.1
	c-20.9-23.3-39-49.2-54.3-76.7c-7.7-13.7-14.5-28-20.7-42.4c-6.2-14.5-11.7-29.2-17.1-43.8c-5.3-14.7-10.4-29.5-15.4-44.4
	c-4.8-14.9-9.7-29.8-14.1-44.8c-8.9-30-17-60.2-23.7-90.8C992.3,225.2,1002.3,254.8,1012.5,284.3z M945.8,524.4l-3.8-5.1
	c-5-6.9-9.5-14.2-13.4-21.9c-7.6-15.4-12.8-31.5-17.3-47.6c-2.2-8.1-4.4-16.1-6.5-24.2c-2.2-8-4.1-16.2-5.9-24.4
	c-7.2-32.7-11.7-65.9-13.1-99.2c5.2,32.9,11.7,65.5,20.1,97.5c4.3,15.9,8.9,31.9,13.7,47.8c4.8,15.8,9.8,31.5,17.2,45.9
	c3.6,7.2,7.8,14.2,12.5,20.8l3.6,4.9l3.8,4.9c2.5,3.3,5.1,6.4,7.7,9.5c10.5,12.5,22.6,23.4,36.5,31.6c13.9,8.1,29.6,13.1,45.9,14.2
	c16.3,1.2,32.8-1.7,48.5-7.3c-14.9,7.5-31.6,11.8-48.6,11.9c-4.2,0-8.5-0.2-12.7-0.8l-6.4-0.9c-2.1-0.4-4.2-0.9-6.3-1.4
	c-8.3-2.1-16.4-5.2-23.9-9.3c-15.2-8-28.3-19.5-39.6-32.2c-2.8-3.2-5.5-6.4-8.2-9.7L945.8,524.4z"/>
<path class="st2" d="M-51.6,1054.9c0-1.1-0.4-2.1-0.9-3.1c-5.3-7.5-14.1-21.1-15.4-25.2c-0.2-2,1.4-10.2,19.5-45.3l0.4-0.9
	c0.3-0.6,0.8-1.3,1.3-2.3c36.2-59.3,22-144.7-41.2-247c6.5-12.1,26.1-56.7-12.4-104.6c-40-49.8-138.5-104.8-237.4-48.5l10.4-86.6
	c0.2-1.6-0.3-3.2-1.4-4.3c-3.1-3.3-10.4-8.4-18.4-6c-9.8,3-16.2,15.5-19.7,38.4v0.1l-10.7,87.3c-13,14.7-115.7,136.7-72.8,238.7
	c0.2,0.5,13.2,29.2,37.5,45.2c13.9,9.1,31.6,14.1,52.7,6.9c16.9,18.9,111.2,119.7,213.4,129.1c0.5,0,44.4,1.7,61,26.1
	c0.1,0.1,0.3,0.3,0.4,0.4l9.4,10.9c0.2,0.3,0.5,0.5,0.7,0.7c1.6,1.3,10.1,7.6,17.2,4.2C-53.6,1067.2-51.4,1062.3-51.6,1054.9z
	 M-200.7,717.7c-6.7-0.2-13.2,0.5-19.9,0.8c-3.3,0.2-6.5,0.9-9.8,1.4l-4.9,0.7l-4.8,1.2c-3.1,0.9-6.4,1.3-9.4,2.5l-9.3,3.1l-8.9,3.9
	c-3,1.3-5.7,3.1-8.6,4.5c-22.6,12.8-40.8,32.7-54.7,55.4c-13.8,22.9-24.1,48.2-31.2,74.9c1.1-27.6,8.6-55.2,21.3-80.4
	c6.3-12.7,14.4-24.5,24-35.2s20.9-19.9,33.5-27.3c3.2-1.7,6.4-3.6,9.7-5l10-4.2l10.3-3.3c1.8-0.6,3.5-1,5.2-1.3l5.3-1.1
	c14.2-2.6,28.6-3.6,42.6-2c28.2,2.3,55.3,10.9,79.9,23.4C-147,722.9-174,717.8-200.7,717.7z"/>
<path class="st3" d="M-471.7-202c-1.2,0.7-6,3.4-12.3,2.5c-5-0.8-8.4-3.5-9.8-4.9c1.9,4.3,4.4,10.2,7.4,17.2
	c6,14.3,5.3,13.6,9.8,24.6c7.2,17.3,9.9,21.1,9.8,29.4c0,3.4-0.1,12.4-4.9,14.7c-4.5,2.1-10.8-2.5-17.2-7.4
	c-5.3-4-8.6-7.4-17.2-17.2c-15.8-17.8-19.4-22.9-22.1-27c-3.3-5-5.7-9.3-7.4-12.3c0.1,4.3-0.4,11.1-4.9,14.7
	c-5.7,4.5-14.6,1.6-27-2.5c-9.2-3-11.7-5.1-24.5-9.8c-3.2-1.2-6.1-2.2-8.6-3c-2.4-0.8-4.5-1.4-6.1-1.9c1.6,1.4,3.1,2.8,4.5,4.2
	c13.4,13.2,15.8,23.2,15.2,30.2c-0.4,5.1-2.3,6.1-2.4,12.3c-0.3,12.5,7.2,15.3,9.8,29.4c0.5,2.6,3.3,18.4-4.9,24.5
	c-2.5,1.8-5.3,2.3-7.4,2.5c8.1,7.8,18.1,17.7,29.5,29.4c6.8,7.1,13.4,14.1,14.7,24.5c0.4,2.8,1,8.7-2.4,12.3
	c-3.7,3.9-8.8,1.4-17.2,2.5c-4.3,0.5-12.8,5.3-29.5,14.7c-11.3,6.4-14,8.1-19.6,9.8c-6.9,2.1-13,2.5-17.2,2.5
	c10.4,6.4,18.9,11.5,24.6,14.7c17.2,10,24.1,13.4,31.9,22.1c9.5,10.7,9.8,17.6,9.8,19.6c0,7-3.7,12.8-4.9,14.7
	c-3.3,5.2-7.4,8.2-9.8,9.8c6.6-0.3,13.1-0.3,19.6,0c20.2,0.9,20.6,3.5,31.9,2.4c9.9-0.9,15-3.5,19.6,0c3.8,2.9,4.6,7.7,4.9,9.8
	c1.4,9.1-3.5,15.4-12.3,31.9c-2.4,4.6-5.9,11.3-9.8,19.6c3.9-4.4,10.3-10.6,19.6-14.7c14.2-6.3,19.5-1,39.3-4.9
	c15-2.9,17.6-7.1,41.7-12.3c11.9-2.6,17.7-3,19.6,0c2.7,4-3.1,12.3-4.9,14.7c9.3-5.9,20.8-14.6,31.9-27c6.8-7.6,12.2-15.2,16.6-22.6
	c10,32.9,18.1,66.4,23.9,100.2c8.7,50.4,12.9,101.9,12.2,153c-0.1,4.8,3.8,8.7,8.6,8.8c2.4,0,4.7-0.9,6.3-2.5c1.5-1.5,2.5-3.7,2.5-6
	c0.7-52.3-3.5-104.8-12.5-156.2c-5-29-11.7-57.8-19.7-86.2c1.3,1.5,2.6,2.9,3.8,4.2c15.2,16.9,22.1,22.6,24.6,24.5
	c7.8,6.3,13,9.3,22.1,17.2c7.8,6.8,13.6,13,17.2,17.2c-1.4-2.3-3.2-5.6-4.9-9.8c-3-7.1-5.3-12.9-4.9-19.6c0.1-1.2,1-13.7,9.8-19.6
	c6.7-4.5,12-1.2,34.4,0c12,0.7,21.3,0.3,29.4,0c2.6-0.1,15-0.6,31.9-2.4c14.6-1.6,15.7-2.4,22.1-2.5c12.5-0.2,22.7,2.5,29.5,4.9
	c-5.9-2.7-13.6-6.6-22.1-12.3c-11.4-7.5-18.5-14.1-29.5-24.5c-20.9-19.8-23.6-26.6-24.5-29.5c-1.5-4.4-5.1-14.9,0-24.6
	c3.4-6.3,8.9-9.3,9.8-9.8c8.4-4.4,12.7,0.2,22.1-2.5c5.1-1.4,4.7-3,22.1-17.2c11.6-9.4,14.8-11.2,17.2-12.3
	c7.6-3.6,14.7-4.6,19.6-4.9c-3.8-1.9-9.1-5-14.7-9.8c-7.5-6.5-13.5-11.7-14.7-19.6c-1.4-9.1,4.2-16.9,9.8-24.5
	c5.1-7.1,10.8-11.8,14.7-14.7c-2.3-1.4-6.7-4.4-9.8-9.8c-5.7-9.8-3.2-19.7-2.5-22.1c2.3-8.1,7.6-12.9,9.8-14.7
	c-5-0.1-12.9,0.3-22.1,2.5c-17,4-25.1,11.2-51.5,22.1c-15.4,6.3-20.1,6.9-24.5,4.9c-9.7-4.4-11.8-18.7-12.3-22.1
	c-1.5-10.1,1.9-12,7.3-36.8c3.4-15.6,3.3-20.2,7.4-31.9c2.6-7.4,5.4-13.3,7.4-17.2c-1.5,1.9-9.3,11.6-22.1,12.3
	c-2.4,0.1-7.5,0.4-12.3-2.4c-4.3-2.5-7.8-7.1-12.3-27c-1.7-7.5-3.6-17.5-4.9-29.5c-13.6,11.9-23,22-29.4,29.5
	c-3.6,4.2-8.3,9.9-14.7,9.8c-5.6-0.1-10-4.5-12.3-7.4c0.3,12.1,0.2,22.1,0,29.4c-0.7,27.5-3.1,41.3-9.8,54
	c-3.8,7.3-7.5,11.3-12.3,12.3c-6.7,1.5-12.9-3.5-14.7-4.9c-6.5-5.2-9.1-11.9-14.7-39.3c-3.1-14.9-5.2-25.4-7.4-41.7
	c-1.2-9.1-2-16.8-2.5-22.1c-3.7,9.3-11.8,15.2-19.6,14.7c-8.1-0.5-13.2-7.7-14.7-9.8c-4.2-5.9-4.8-12-4.9-14.7
	c-0.6,1.4-3.4,8.1-9.8,9.8c-7.6,2-14.4-4.6-17.2-7.4c-4.6-4.5-6.5-9.5-7.4-12.3c-1.7,10-3.5,18.4-4.9,24.5
	C-463-210.3-466.7-204.8-471.7-202z M-484.9-30.5c-13.8-15.5-26.8-31.8-38.7-48.9c-11.8-17.1-22.7-34.9-31.5-53.9
	c14.7,14.9,28.5,30.2,42.2,45.4L-472-42l40.9,45.8c13.6,15.4,27.3,30.7,40.4,47.1c-17.9-10.9-34.3-23.7-50-37.4
	C-456.3-0.3-471.1-15-484.9-30.5z M-308.3,49.3c11.7-1.7,23.7-1.5,35.4,0.5c11.7,2,23.2,5.7,33.7,11.2s20.1,12.5,27.7,21.7
	c-11.4-3.1-22-6.3-32.6-9c-10.6-2.8-21-5-31.6-6.8s-21.2-3.1-32.1-4c-10.9-1-22-1.4-33.8-2.3C-331.4,54.5-320,51-308.3,49.3z
	 M-373.5,68c-15.1,1.3-30,0.7-44.7-0.8s-29.4-4-43.8-7.3s-28.7-7.4-42.6-12.5s-27.6-11-40.6-18.7c15.1,0.8,29.7,3.1,44.2,5.5
	c14.5,2.5,28.7,5.5,43,8.7c14.2,3.2,28.4,6.8,42.5,10.8C-401.6,57.9-387.5,62.2-373.5,68z M-250.8-182.4
	c-6.8,19.5-14.7,38.3-22.7,56.9c-8.1,18.6-16.4,37-25,55.4s-17.3,36.6-26.4,54.7s-18.4,36.2-29,53.9c3.9-20.3,9.8-39.9,16.5-59.2
	c6.8-19.3,14.5-38.2,23.2-56.8c8.6-18.5,18.1-36.6,28.6-54.2C-275.2-149.3-263.9-166.4-250.8-182.4z M-406.3-149.3
	c8,20.7,14.6,41.9,20,63.4s9.5,43.4,12.2,65.3c2.6,22,4.1,44.2,3.1,66.5c-6.1-21.4-11.2-42.8-16.4-64l-15.7-63.6l-16.2-63.5
	c-5.3-21.2-11-42.4-15.6-64.2C-423.5-190.2-414.4-170-406.3-149.3z"/>
<path class="st4" d="M915,172c-1.4,1.6-9,10.8-4.8,19.8c3.3,7.2,11.7,8.9,12.8,9.1c4.9,1.4,11.6,3.8,19.2,7.6
	c5.6,2.9,13.8,7.1,20.6,14c7.5,7.7,10.9,16.2,14.3,27.5c4,13.4,9.2,34.6,11.7,62.9c-3,0.8-7.3,1.8-12.7,2.9
	c-16,3.2-24.6,3.3-31.1,4.5c-13.2,2.3-21.7,9.7-35.2,21.5c-19.3,16.8-29.4,34.5-40,53.3c-4.2,7.5-12,21.6-18.8,40.5
	c-12.2,33.8-14,62.4-15,86.4c-2.5,59.8-1.6,114.2,0,154.6c-0.1,14.3,1.8,40.3,16.7,67.1c19.1,34.4,48.4,49.5,74.7,63.2
	c19.6,10.2,56.4,29.2,93.6,22.7c9.4-1.6,26.6-4.7,43.1-16.5c5.7-4.1,7.5-6.5,14.8-11.4c15-10.1,28.3-13.9,33.9-15.8
	c33.7-11.2,59.6-40.3,61.3-42.2c19.4-22.2,25.8-45.9,30.7-64.6c2.5-9.2,7.7-31.3,6.6-64.4c-0.7-24.1-4.3-39.6-26.3-114.5
	c-24.1-82.2-28.9-94.9-41.8-112.2c-20.1-27.1-43.3-43.2-51.3-48.5c-20.6-13.6-40-21-54-25.1c-2.5-9.3-6.4-23.8-10.9-41.7
	c-9.8-38.8-10.3-44.6-16.7-55.1c-9.4-15.6-20.9-23.7-39.2-36.5c-28.5-20.1-40.6-17.6-44-16.7C925.6,164.9,919.6,166.6,915,172z
	 M1034.5,445.9l5.3,22.6l5.6,22.5c3.8,15,7.2,30.1,10.7,45.1l10.2,45.3c3.2,15.2,6.2,30.4,8.8,45.7c2.5,15.3,5,30.6,7,46
	c4.1,30.7,7.1,61.6,8.6,92.5c-6.3-30.4-11.9-60.7-17.6-91.1c-3-15.2-5.7-30.3-8.8-45.4c-3-15.1-6-30.2-9.3-45.3
	c-3.2-15-6.5-30.2-9.5-45.4s-6.1-30.4-8.8-45.6c-1.4-7.6-2.9-15.2-4.2-22.9l-3.4-23c-2.1-15.3-4.3-30.7-5.9-46.1
	C1027.2,415.8,1030.8,430.8,1034.5,445.9z M921,416.3c-8.6,14.3-14.1,30.1-17.2,46.3c-1.5,8.1-2.3,16.5-3.4,24.9
	c-0.5,4.2-0.9,8.4-1.3,12.6c-0.4,4.2-0.9,8.4-1.1,12.6c-1.4,16.8-2.3,33.7-2.8,50.6c-0.7,16.9-0.8,33.8-0.8,50.7
	c-0.1,16.9,0.4,33.9,0.7,50.8c0.8,33.9,2.7,67.8,3.1,102c-5.2-33.7-9.7-67.5-12.2-101.5c-1.4-17-2.1-34.1-2.6-51.2
	c-0.4-17.1-0.3-34.2,0.1-51.3c0.8-17.1,1.7-34.2,3.5-51.2c0.4-4.3,1-8.5,1.5-12.8s1.1-8.5,1.7-12.7c0.7-4.2,1.3-8.5,2-12.7
	c0.8-4.3,1.6-8.5,2.7-12.8c4-17,11.2-33.4,21.3-47.5s22.9-26.2,37.3-35.2C940.6,389,929.3,401.9,921,416.3z M1049.6,338.7
	c1.7,2.1,3.5,4.2,5.2,6.3c1.7,2.1,3.6,4,5.5,6.1l4.6,5.1l-7.4,1.5c-5.7,1.1-11.1,3.3-15.7,6.5c-4.6,3.1-8.6,7.2-11.6,11.9l-3.7,5.7
	l-5.1-4.7c-5.3-4.8-11.6-8.4-18.5-10.2c-6.9-1.9-14.4-2-21.7-0.6l-7.7,1.5l2.2-6.9c1.9-6,4-12,6.1-18c1.2-3,2.2-6,3.4-8.9
	c1.2-3,2.4-5.9,3.7-8.9c-0.1,3.2-0.4,6.4-0.7,9.6s-0.7,6.3-1.1,9.5c-0.5,3.9-1.1,7.8-1.7,11.7c6.5-1.3,13.3-1.3,20,0.1
	c6.9,1.5,13.5,4.5,19.1,8.7c3.4-3.8,7.3-7,11.8-9.5c4.4-2.4,9.1-4,13.9-4.9c-0.3-0.5-0.5-0.9-0.8-1.4c-1.4-2.5-2.8-4.9-3.9-7.5
	c-2.4-5.1-4.3-10.5-5.6-16C1043,330,1046.2,334.5,1049.6,338.7z M1003.4,263.7c5.1,9.3,9.5,19,12.7,29.1s5.4,20.5,6.5,31
	s1.1,21.2-0.6,31.7c-3.2-10.2-5.7-20.1-8.4-30c-2.7-9.8-5.6-19.6-8.7-29.2c-3-9.7-6.4-19.2-9.8-28.8c-3.5-9.6-7.2-19.2-10.7-29.2
	C992,245.9,998.1,254.6,1003.4,263.7z"/>
<path class="st5" d="M-89,226.1c-1.2-12.4-8.1-14-21.4-38.4c-9.6-17.7-16.4-29.9-17.3-46.3c-1.2-20.1,7.7-22.5,4.6-40
	c-0.3-1.9-5.8-30.4-27.5-36.5c-9.3-2.6-17.7-0.1-22.1,1.7c-0.4-4.4-1.5-11.3-5.7-18.1c-11-17.6-33.7-20.2-39.7-20.6
	c-8-0.6-22.9,3.4-52.2,11.2c-14.3,3.8-23.7,6.6-30.1,1.5c-4.6-3.7-3.2-7.9-7.8-16.2C-313.1,15.5-322.1,7-331.9,4
	c-16.7-5.1-32.9,6.3-40.2,11.4c-4.5,3.1-16.9,12.5-32.7,43.6c-16.9,33.3-13.6,43.8-31.1,69.6c-16.6,24.5-27.8,27-32.5,27.6
	c-2.1,0.2-6.8,0.5-27.9-8.4c-27.9-11.8-30.2-16.7-39.8-16.6c-15.8,0.1-27.5,13.4-36.4,23.5c-5.6,6.3-23.6,26.8-22.8,53.7
	c0.4,14.5,6.4,33,13.2,54.3c2.1,6.6,4.7,14.1,1.7,22.1c-3.6,9.3-11.8,10.8-18.3,17.7c-9.9,10.7-4.8,22.7-6.7,46
	c-2.5,31-16.1,63.1-31.3,83.6c-1.1,1.5-7.3,9.8-14.3,21.8c-9.5,16.3-14.3,24.5-12.5,31.9c0.5,1.8,1.4,4.4,17.2,16.2
	c-6.2,3.8-12.5,7.6-18.8,11.3c-23.4,13.7-47.6,26.7-72,38.6c-4.9,2.4-7,8.3-4.6,13.3c2.4,4.9,8.3,7,13.3,4.6
	c24.7-12.2,49.4-25.5,73.2-39.5c8.8-5.2,17.5-10.5,26.2-15.9c9.7,6.6,13.7,8.7,16.8,10.1c10,4.6,17.2,7.9,26,6.4
	c9.1-1.5,10.9-6.7,18.2-9.7c14.4-5.9,25.2,7,49.8,14.8c0,0,33.2,10.5,70.1-1c11-3.4,24.9-8,28.3-19.6c2.4-8.1-1.4-16-3.7-20.1
	c7.5,1.2,18.7,2.3,32,0.5c38.9-5.2,63.9-30.1,74.7-40.9c10.9-10.9,30.6-30.6,39-61.5c6.4-23.6,1.8-37.4,14.8-49.8
	c8.9-8.5,23.3-13.8,36.2-11.5c10.7,1.9,12.3,7.5,21.9,10.4c17.9,5.3,36.2-7.1,48.3-15.3c18.4-12.4,28.5-28,48.9-59.3
	C-89.4,239.9-88.5,232.3-89,226.1z M-416.6,207.6c2.8-19.7,7.7-39.2,14.6-58c6.8-18.8,15.3-36.8,24.9-54c4.8-8.6,9.9-17.1,15.3-25.4
	c5.5-8.2,11.1-16.4,17.2-24.2c-2.8,9.6-6.4,18.7-9.8,28c-3.4,9.2-7.1,18.3-10.7,27.4c-7.3,18.1-14.5,36-21,54.1
	c-6.6,18.1-12.4,36.3-17.5,55c-5.2,18.6-9.6,37.6-14.5,56.8C-420.1,247.3-419.3,227.3-416.6,207.6z M-523.3,220.6
	c7.8,17.4,15.4,34.6,22.4,52.6c7.1,18.1,12,37.6,13.8,57c1.8,19.5,1.2,39.1-3,58.1c-2.8-19.2-5.8-37.9-10.1-56
	c-4.2-18.2-9.7-35.7-16.5-53c-6.9-17.5-13.6-35.6-19.1-54c-2.8-9.2-5.3-18.5-7.4-27.8c-2.1-9.4-4.2-18.8-5.6-28.4
	C-539.1,185.9-531.3,203.3-523.3,220.6z M-579.5,348.8c5.1,7.7,8.4,16,10.9,24.4c2.4,8.4,4,17.1,4.7,25.8s0.6,17.4-0.4,26.2
	c-1.1,8.7-2.9,17.4-6.7,25.9c-3.3-8.7-5.1-17.2-6.6-25.6c-1.5-8.4-2.5-16.8-3.2-25.1c-0.7-8.4-1.1-16.8-1-25.3
	C-581.7,366.5-581.3,357.9-579.5,348.8z M-615.6,490.5c22.1-11.5,43.7-23.9,63.9-38c10.1-7,20.1-14.4,29.8-22
	c9.7-7.6,19.1-15.5,28-23.9c8.9-8.4,17.4-17.2,25.3-26.3c8-9.1,14.9-18.8,21.6-29.1c13.5-20.6,27.1-41.7,40.9-62.5
	c14.1-20.6,28.4-41.1,42.8-61.4c7.3-10.3,15.1-20.3,23.3-30c8.1-9.7,16.7-19,25.6-27.9c35.4-35.8,75.3-66.7,117.6-93.2
	c-38.1,32.2-75,65.5-107.9,102.3c-16.3,18.5-31.8,37.5-45.3,58l-20.9,30.9l-21,30.8l-20.8,30.9c-7,10.3-13.7,20.8-20.9,31.1
	c-7.2,10.3-15.1,20.7-23.9,30c-8.7,9.4-17.9,18.1-27.6,26.3c-9.7,8.2-19.7,15.9-30.2,23c-10.4,7-21,13.8-31.9,20.1
	C-569.1,472-591.9,482.6-615.6,490.5z M-469.4,511.3c-9.9-0.9-19.6-3.2-28.9-6.7c-9.3-3.5-18.1-8.2-26.1-13.9
	c-8-5.8-15.3-12.7-20.9-21.2c9.8,2.8,18.5,6.2,27.3,9.4l25.8,9.8l25.8,9.6c8.7,3.3,17.6,6.5,26.7,10.8
	C-449.5,511.8-459.5,512.2-469.4,511.3z M-354.6,442.2c-7.5,0.3-14.9-0.7-22.1-2.3c-3.6-0.8-7.1-1.8-10.4-2.8
	c-3.4-1.1-6.4-2.1-9.6-2.9c-12.6-3.7-25.6-6.5-38.8-8.8c-13.3-2.4-26.8-4.2-40.8-6.9c13.6-4.4,27.7-6.3,41.9-6.4
	c14.2-0.1,28.6,1.8,42.5,5.8c3.5,1,7,2.2,10.1,3.3c3.2,1.2,6.3,2.2,9.4,3.2c6.2,1.9,12.3,3.6,18.7,4.5c12.6,2,25.7,1.5,39.6-1.9
	C-324.7,436.7-339.7,441.9-354.6,442.2z M-190.4,275.3c-11.6,2.7-23.1,4.1-34.5,5.5c-11.4,1.3-22.8,2.5-34.4,3.2l-17,0.9
	c-5.4,0.3-10.1,1.1-15.5,2.3c-5.3,1.2-10.3,2.7-15.3,4.5c-5,1.9-10.4,4.3-16.1,6.2c-22.6,7.6-46.4,10.2-69.4,7.6
	c22.6-4.4,44.5-10.5,64.4-19.9c4.9-2.3,9.8-5.1,15.3-7.6c5.5-2.6,11.4-4.7,17.2-6.3c5.6-1.7,12.1-2.9,18.2-3.5
	c6-0.5,11.6-0.7,17.2-1.1l34-2.3c11.4-0.7,22.7-1.4,33.7-2.6c21.9-2.6,43.7-8.8,65.4-16.6C-145.7,259.6-167.3,269.8-190.4,275.3z"/>
<path class="st6" d="M354.5,567.4c13.5,8.8,26.6,10.5,32.9,10.9c3.9-4.9,7.9-9.9,11.9-14.8c5.3,5.3,14.2,12.8,27,18.3
	c9.2,3.9,17.5,5.6,23.7,6.4c3.9-4.9,7.9-9.9,11.9-14.8c3.9,4.1,9.7,9.4,17.8,13.9c12,6.6,23.2,8.4,30,8.9c3-6.2,6.1-12.3,9.1-18.5
	c3.4,4.3,9,10.4,17.6,15.5c12.2,7.2,23.8,8.6,30,8.9c2.1-3,4.1-6,6.2-9c3.8,4.4,10.6,11,20.8,15.9c7.3,3.5,14,5.1,18.9,5.8
	c1.4-2.5,2.9-5.1,4.3-7.6c3.5,3.6,12.1,11.5,25.8,14.9c15.6,3.9,28.3-0.3,32.9-2.1l1.4,1c0.5-4.8,1.2-18.4-6.8-32.5
	c-7-12.3-17-18.5-21.4-20.8c2.1-2.1,4.1-4.1,6.2-6.2c-2-4.5-5.3-10.6-10.7-16.6c-7.5-8.5-15.7-13.2-21-15.7c2.4-2.8,4.7-5.6,7.1-8.4
	c-1.9-5.8-6.4-16.7-16.7-26.4c-7.2-6.9-14.7-10.6-19.7-12.7c5.1-4.6,10.3-9.2,15.4-13.8c-2.3-6.3-7-16.7-16.7-26.4
	c-6.5-6.6-13.2-10.8-18.2-13.4c3.7-5.2,7.5-10.3,11.2-15.5c-2.5-5.8-6.3-13.4-12.6-21.1c-8.8-10.9-18.5-17.4-25.1-21.1
	c3.7-5.2,7.5-10.3,11.2-15.5c-2.1-6-7.3-18.2-19.5-28.8c-9.7-8.4-19.7-12.1-25.5-13.8c3.9-4.6,7.9-9.3,11.8-13.9
	c-3.9-5.3-9.3-11.5-16.5-17.7c-9-7.7-17.8-12.7-24.6-15.9c2.9-4.2,5.9-8.4,8.8-12.7c-2.2-3.1-8.7-11.7-21-15.7
	c-9.7-3.2-18-2-21.9-1.1c1.4-3.6,2.9-7.1,4.3-10.7c-4-3.5-12.4-9.8-24.9-12.3c-8.2-1.7-15.1-1.1-19.7-0.3c1.5-4.8,3-9.6,4.5-14.4
	c-3.6-2.6-9.6-6.2-17.8-8.3c-10.1-2.6-18.7-1.5-23.4-0.5c-1.8-4.8-3.6-9.7-5.3-14.5c-20.9-10.1-97.4-44-182.6-14.8
	c-27,9.2-48.3,22.5-64,34.7c-10.4-9.3-20-19.6-28.6-30.7c-15.4-19.8-27.5-41.9-35.9-65.6c-0.7-2.1-2.6-3.4-4.6-3.7
	c-0.9-0.1-1.8,0-2.7,0.3c-3,1-4.5,4.3-3.5,7.3c8.8,24.9,21.5,48,37.6,68.8c9.2,11.8,19.4,22.8,30.6,32.7c-7.5,18.3-14.5,42-16,70.2
	c-5,89.5,48.2,153.6,63.6,170.9c5.1,0.4,10.3,0.8,15.4,1.2c0.4,4.7,1.6,13.2,6.8,22.2c4.2,7.3,9.3,12.1,12.7,14.8
	c4.2-2.7,8.4-5.5,12.6-8.2c0.5,4.6,1.8,11.4,5.6,18.8c5.8,11.2,14.1,17.6,18.5,20.5c3-2.3,6.1-4.7,9.1-7c0.3,3.9,1.3,12.2,7,20.6
	c7.2,10.6,17.3,14.7,20.8,15.9c3.3-3.9,6.5-7.9,9.8-11.8c4.9,5.7,12.1,12.8,21.9,19.3c7.9,5.2,15.3,8.7,21.4,11
	c3.4-5,6.8-10,10.3-15.1C337.6,551.9,343.8,560.4,354.5,567.4z M414.2,523.1c-5.4-12.5-9.7-25.6-13.1-38.8c-1.7-6.6-3-13.3-4.2-20.1
	c-1.1-6.8-2.1-13.5-2.6-20.4c-1.2-13.6-1.4-27.3,0-40.9c1.4,13.6,2.9,27,5.1,40.3c1.1,6.6,2.2,13.3,3.6,19.9
	c1.3,6.6,2.8,13.2,4.5,19.6c0.7,3.3,1.7,6.5,2.5,9.8l2.8,9.7c1.8,6.5,4,12.8,6.2,19.2c4.4,12.7,9.4,25.2,14.7,37.8
	C426,547.8,419.6,535.6,414.2,523.1z M471,538.1c-4-8.7-7.2-17.8-9.6-27.1c-2.4-9.3-3.9-18.8-4.6-28.4c-0.7-9.5-0.5-19.2,0.9-28.6
	c1.3,9.5,2.5,18.8,4.1,28c1.6,9.2,3.5,18.3,5.8,27.4c2.3,9,5,18,8,26.8c3,8.9,6.4,17.6,9.9,26.5C479.8,555.1,475,546.8,471,538.1z
	 M521.7,550.3c-3-5.5-5.5-11.4-7.3-17.4c-1.9-6-3.1-12.3-3.7-18.5c-0.6-6.3-0.6-12.6,0.5-18.9c1.7,6.1,3,12.1,4.5,18
	c1.5,5.9,3.1,11.7,4.9,17.5c1.8,5.8,3.7,11.5,5.8,17.3c2,5.8,4.3,11.4,6.4,17.4C528.3,561.1,524.8,555.8,521.7,550.3z M542.4,461
	c5.8,0.2,11.5,1,17.1,2.4c5.6,1.4,11.1,3.3,16.1,6.1c-5.8-0.4-11.3-1.1-16.9-1.5c-5.5-0.5-11.1-0.8-16.6-1.1
	c-5.5-0.2-11.1-0.3-16.6-0.2c-5.6,0-11.2,0.2-17,0.2c5.3-2.4,10.9-3.9,16.6-4.9C530.9,461.1,536.7,460.8,542.4,461z M536.9,421.6
	c8.6,1.5,17.1,3.8,25.2,7.1c-8.7-1-17.2-1.9-25.8-2.5c-8.6-0.6-17.1-0.8-25.6-0.8c-8.5,0.1-17,0.6-25.6,1.3
	c-8.5,0.8-17.1,1.8-25.7,2.9c8-3.5,16.5-5.9,25.1-7.5c8.6-1.7,17.4-2.5,26.2-2.6C519.4,419.4,528.3,420,536.9,421.6z M312.9,239.4
	c7.6-2.2,15.2-4.2,22.9-6.1c7.7-1.8,15.4-3.5,23.2-5c7.7-1.4,15.5-2.8,23.3-3.9c15.6-2.2,31.4-3.7,47.1-4.2
	c-15.5,2.8-31,5.6-46.3,8.7c-7.7,1.6-15.3,3.1-23,4.8c-7.7,1.7-15.3,3.4-22.9,5.3c-7.6,1.8-15.2,3.7-22.8,5.7
	c-7.6,1.9-15.1,4.1-22.7,6.1c-15.1,4.2-30.1,8.8-45.3,13.3c14.3-6.8,28.9-12.6,43.9-17.7C297.8,243.9,305.4,241.7,312.9,239.4z
	 M265.8,222.3c5.6-2.2,11.3-4.5,16.8-6.9c5.6-2.3,11.2-4.7,16.7-7.1c5.6-2.3,11.1-4.9,16.7-7.3l33.3-15c-10,7.1-20.5,13.4-31.3,19.1
	c-5.4,2.9-10.9,5.6-16.4,8.3c-5.5,2.6-11.2,5.1-16.8,7.5c-5.7,2.3-11.4,4.6-17.1,6.6c-5.8,2-11.5,4-17.4,5.8
	c-11.7,3.6-23.6,6.6-35.6,8.7c11.4-4.5,22.8-8.7,34.1-13.1C254.5,226.8,260.2,224.7,265.8,222.3z M217.1,211.1
	c8.8-3.7,17.4-8.1,25.8-12.6c8.4-4.6,16.7-9.4,24.9-14.5c8.2-5.1,16.2-10.5,24.4-15.8c-6.6,7.2-13.9,13.7-21.7,19.6
	c-7.8,5.9-16,11.3-24.7,15.9c-8.6,4.7-17.7,8.7-27,11.7c-9.3,3.1-19.2,5-28.9,4.9C199.2,218,208.2,214.9,217.1,211.1z M192.5,198.2
	c5.8-3,11.3-6.5,16.4-10.5c5.1-4,9.8-8.5,14.1-13.4c4.3-4.9,8.2-10.3,11.9-16c-1.5,6.7-4.4,13-8.2,18.8c-3.8,5.8-8.6,11-14.1,15.3
	c-5.5,4.3-11.7,7.8-18.2,10.2c-6.5,2.3-13.4,3.7-20.2,3.5C180.6,203.7,186.7,201.2,192.5,198.2z M147.5,203.9l16.5,10.2
	c11,6.8,21.9,13.7,32.8,20.7c21.7,14.1,43.2,28.5,64.3,43.3c7,4.9,13.9,9.8,20.8,14.8c16-5.7,32.5-10.1,49.2-13.5
	c8.5-1.8,17.1-3.2,25.7-4.5c8.6-1.2,17.2-2.1,25.9-2.9c8.7-0.6,17.4-1.1,26.1-1.3c8.7-0.1,17.4-0.1,26.1,0.3
	c17.4,0.7,34.7,2.6,51.7,5.8c-17.3-0.8-34.6-1.3-51.8-1.1c-8.6,0.1-17.2,0.2-25.8,0.7c-8.6,0.4-17.2,0.8-25.8,1.6
	c-8.6,0.6-17.1,1.5-25.7,2.5c-8.6,0.9-17.1,2.2-25.6,3.4c-16.7,2.5-33.2,5.7-49.8,9.1c14,10.1,27.9,20.4,41.8,30.8
	c4.1,3.1,8.2,6.3,12.3,9.4c13.5-4.5,27.4-7.9,41.5-10.4c7.8-1.4,15.6-2.5,23.5-3.4c7.9-0.8,15.8-1.4,23.7-1.7
	c15.8-0.6,31.7-0.1,47.4,1.5c15.7,1.6,31.3,4.3,46.5,8.5c-15.7-1.7-31.3-3.1-46.9-3.9c-7.8-0.3-15.6-0.6-23.4-0.6
	c-3.9-0.1-7.8,0-11.7,0c-3.9,0.1-7.8,0.2-11.7,0.4c-15.6,0.5-31.2,1.9-46.7,3.8c-13.8,1.7-27.6,3.9-41.4,6.4
	c16.1,12.4,32.2,25.1,48,37.9c5.3,4.4,10.6,8.7,15.9,13.1c11.3-4.1,22.9-7,34.8-9c6.2-1.1,12.4-1.8,18.6-2.5
	c6.2-0.5,12.5-0.9,18.8-1c12.5-0.1,25.1,0.6,37.4,2.5c12.3,1.8,24.6,4.6,36.3,8.7c-12.3-1.7-24.6-3.2-36.9-4.1
	c-6.1-0.4-12.3-0.8-18.4-1l-9.2-0.2c-3.1,0-6.1,0-9.2,0.1c-6.1,0-12.3,0.3-18.4,0.6c-6.1,0.3-12.3,0.9-18.4,1.4
	c-11.7,1.2-23.3,2.8-35.1,4.7c34.5,28.5,68.6,57.4,102,87.1c19.3,17.2,38.4,34.6,57.3,52.2c9.4,8.9,18.8,17.8,28.1,26.7l13.9,13.5
	l13.8,13.6l-28.9-25.8c-9.6-8.6-19.3-17.1-29.1-25.6c-19.4-17.1-38.9-34-58.5-50.8c-19.7-16.7-39.3-33.5-59.2-49.9
	c-19.9-16.6-39.7-33.1-59.7-49.3c-20-16.3-40.3-32.3-60.7-48.1c-20.4-15.8-41.1-31.2-61.9-46.5c-20.9-15.2-41.9-30.2-63.2-44.8
	c-10.6-7.4-21.2-14.7-32-21.9L130.9,194L147.5,203.9z M107.5,292.7c5-5.5,9.6-11.2,13.6-17.1c4-5.9,7.5-12.1,10.3-18.6
	c2.8-6.5,5-13.3,6.6-20.2c1.6-7,2.5-14.2,3.1-21.6c2.1,7.2,2.6,14.8,1.9,22.4c-0.7,7.6-2.6,15-5.7,22c-3,7-7.2,13.5-12.2,19.2
	C120,284.3,114.2,289.3,107.5,292.7z M144,320.2c3.1-10.1,5.9-20.2,8.4-30.4c2.5-10.2,4.6-20.4,6.1-30.8c1.5-10.4,2.3-20.8,2.2-31.4
	c2.8,10.3,3.5,21.2,2.9,32c-0.6,10.8-2.3,21.4-4.9,31.8c-2.5,10.4-5.9,20.7-9.9,30.6c-4.1,9.9-8.9,19.5-14.7,28.5
	C137.5,340.2,140.9,330.2,144,320.2z M175.7,366.4c1-6.6,2.1-13.1,3-19.7c1-6.5,2-13.1,2.8-19.7c1-6.5,1.8-13.1,2.6-19.7
	c0.9-6.6,1.5-13.2,2.3-19.8c1.5-13.2,2.8-26.4,4.3-39.7c1.2,13.3,1.3,26.7,0.8,40.1c-0.2,6.7-0.7,13.4-1.3,20
	c-0.6,6.7-1.4,13.3-2.3,19.9c-1,6.6-2,13.2-3.2,19.8c-1.3,6.6-2.6,13.2-4.2,19.6c-3.1,13-6.8,25.9-11.5,38.4L175.7,366.4z M219,430
	c-1.1-8.6-1.7-17.2-2.4-25.8c-0.6-8.6-0.9-17.3-1.2-25.9c-0.1-8.6-0.2-17.3,0-25.9c0.3-8.6,0.6-17.3,1.2-25.9
	c1.2-17.2,3.3-34.4,6.5-51.4c-0.5,17.3-1.1,34.4-1.4,51.6c-0.1,8.6-0.3,17.1-0.1,25.7c0,8.6,0.1,17.1,0.3,25.7
	c0.1,8.6,0.4,17.1,0.8,25.7c0.3,8.6,0.8,17.1,1.3,25.7c1,17.1,2.4,34.2,3.8,51.4C223.8,464.1,221,447.1,219,430z M283.1,472.4
	c-2.9-9.1-5.3-18.3-7.6-27.5c-2.2-9.2-4.2-18.6-6-27.9c-1.6-9.4-3.1-18.8-4.2-28.2c-1-9.5-2-18.9-2.5-28.4c-1.1-19-1-38,0.7-56.9
	c1.1,19,2.4,37.8,4.4,56.5c1.1,9.4,2.1,18.7,3.5,28c1.3,9.3,2.8,18.6,4.5,27.9c1.6,9.3,3.5,18.5,5.5,27.7c2,9.2,4.2,18.3,6.5,27.5
	c4.7,18.2,10.1,36.3,15.7,54.4C295.5,508.3,288.8,490.6,283.1,472.4z M344.6,498.5c-6.1-16.2-11-32.8-14.9-49.7
	c-1.9-8.4-3.4-17-4.8-25.5c-1.2-8.5-2.3-17.1-3-25.8c-1.4-17.2-1.6-34.6-0.2-51.8c1.3,17.2,3,34.3,5.3,51.2
	c2.4,16.9,5.3,33.8,9.1,50.4c0.9,4.2,1.9,8.3,2.9,12.5c1.1,4.1,2.1,8.3,3.2,12.4c2.1,8.3,4.7,16.4,7.2,24.6
	c5.2,16.3,11,32.4,17.2,48.5C358,530.3,350.7,514.6,344.6,498.5z"/>
</svg>
