<?xml version="1.0" encoding="utf-8"?>
<!-- Generator: Adobe Illustrator 25.4.1, SVG Export Plug-In . SVG Version: 6.00 Build 0)  -->
<svg version="1.1" id="Layer_1" xmlns="http://www.w3.org/2000/svg" xmlns:xlink="http://www.w3.org/1999/xlink" x="0px" y="0px"
	 viewBox="0 0 720 720" style="enable-background:new 0 0 720 720;" xml:space="preserve">
<style type="text/css">
	.st0{fill:#EAA94B;}
	.st1{fill:#010101;}
	.st2{fill:none;stroke:#EFECE6;stroke-width:10;stroke-miterlimit:10;}
</style>
<path class="st0" d="M-340.1,543.4c0.1-0.2,5.2-19,17.2-19.6c0.1,0,0.2,0,0.3,0c1.8,1,6.8,5.1,3.8,16.7c-1.8,7,0.2,12.9,5.3,16.1
	c10.1,6.2,29,0.4,45.8-14.3l3.1-2.7c24-20.9,56.9-49.4,54.4-92.2c0-0.5-0.1-12.4,10.9-13l0,0c11-0.5,13.2,5.4,16,12.9l0.6,1.7
	c1.8,4.6,9.8,8.8,20.2,8.1c20.2-1.5,57.9-21.8,83.8-140.7c0.2-1.3,5.6-32.9-15-68.4c-0.2-1.6-0.4-6.1,2-8.8c1.8-2,4.9-2.8,9.3-2.5
	c12.2,1,25.8,1.2,32.7-8c5.7-7.7,5.1-20-1.8-37.6c-13-33.1-29.5-51.3-40.4-63.3c-2.6-2.8-4.8-5.3-6.7-7.6
	c0-11.8-1.5-87.5-28.6-142.4c-1.4-4.3-5.9-9.7-12.7-7.7c-1,0.3-1.8,0.9-2.4,1.8c-0.3,0.5-3,5.3,0.5,12.7
	c2.5,5.3,20.8,53.1,23.8,96.7c-0.6,2.3-4.8,14.2-27.4,18.5c-14.6,2.8-87.4,18.4-84.3,53.9c2.3,26.2,8.2,32.7,15.7,40.8
	c0.9,1,1.8,2,2.8,3c2.6,2.9,5.5,7.2,4.8,10.7c-0.5,2.7-3.2,5.2-7.8,7.5c-29.3,14.4-58,19.5-85.4,15c-40.8-6.6-48.4,12.9-53,24.5
	c-0.4,0.9-0.7,1.9-1.1,2.7c-5.8,13.7-3.4,45.8,17.7,57.3c10.2,5.6,14.7,15.5,15.5,23c0.6,5.9-0.9,11.2-3.9,13.7
	c-7.7,6.6-33.5,12.3-81.2-7.6c-18.5-7.7-37.4-7.1-54.5,1.8c-20.8,10.8-35.4,32.1-38.6,46.6c-4.5,20.3,2.1,30.7,9.8,42.8
	c0.9,1.5,1.9,3,2.9,4.6c5,8.1,5.5,11,5,12c-0.2,0.5-1.5,2.1-9.4,3.3c-21.6,3.3-71.5,15-69.6,51.4c2,37.4,28.4,39.4,47.7,40.9
	l1.2,0.1c10.2,0.8,13.1,2.2,13.9,2.7c-0.2,0.6-1,2.1-4,5.2c-5.7,5.9-9.6,19.1-5.4,32c3.4,10.3,12.9,23.5,38.9,27.8
	c6.7,1.1,13.6,1.5,20.5,1.1c42.7-2,86.2-30.6,107-72.6C-340.3,543.9-340.2,543.7-340.1,543.4z M-433.5,503.4
	c38-16.7,74.8-35.7,109.4-58c34.7-22.2,66.8-48,95.5-77.2c14.3-14.7,27.6-30.2,40-46.6c12.4-16.3,23.6-33.5,33.6-51.4
	s18.8-36.5,26.2-55.7c7.4-19.2,13.6-39,17.3-59.4c-1.3,20.8-6.1,41.2-12.2,61.2c-6.3,19.9-14.2,39.4-23.8,58
	c-9.4,18.7-20.6,36.5-32.9,53.6c-12.3,17-26,33-40.5,48.1c-7.5,7.3-14.9,14.8-22.9,21.6c-7.7,7.1-15.9,13.6-24.1,20.2
	c-16.7,12.6-33.8,24.7-52,35.1C-355.6,474-393.9,491-433.5,503.4z"/>
<path class="st1" d="M946.6,579.5c13.4,12.4,29.9,27.2,56.1,35.8c27.7,9,51,6.1,82.9,2c29.8-3.8,43.9-10.3,53.2-16
	c10-6.1,17.2-12.8,21.8-17.7c2.3-0.2,16.7-1.9,24.7-14c3.2-4.8,4.3-9.6,4.7-12.8c7.4-5,17.9-13.6,26.1-27.2
	c10.3-17,13.7-36.5,11.7-63.6c-1.6-20.8-6.4-47-44.6-129.4c-18.7-40.4-32-65.2-50.2-91.7c-18.8-27.3-32-40.6-49.6-50.1
	c-19-10.2-39.2-13.7-45-14.7c-13.9-2.3-25.9-2.4-34.7-2c-9.2-20.2-17.9-36.7-24.8-49.1c-8.4-15.2-15.3-26.5-22.7-37.3
	c-10.4-15.2-15.7-22.9-23.5-29.1c-11.5-9-13-4.6-34.8-16.9C881.3,36.4,874,29.2,866,32.4c-5.2,2.1-8.4,7.6-9.3,9
	c-3.7,6.3-3.4,12.4-3.2,14.6c3.2,1.5,8.2,3.8,14.3,6.5c19.1,8.3,24.7,9.2,31.9,13.3c9,5.1,13.9,12,23.9,25.8
	c14,19.4,21.3,37,27.7,52.8c5.3,13.1,9,24.4,11.5,32.8c-6.3,0.5-15.4,1.8-25.5,5.6c-21.8,8.3-34.3,22.8-39.6,29.1
	c-14.7,17.4-21,36.3-24.8,53.3c2.1,0.8,4.4,1.6,6.8,2.4c-2,0.2-4.5,0.5-7.5,0.8c-0.3,1.3-0.5,2.6-0.8,3.9
	c-8.5,43.7-21.7,111.2,8.1,192.1C887.4,495.6,904.5,540.6,946.6,579.5z M1139.2,571.6c-1.7,2.2-3.7,3.8-5.7,5.4
	c-2,1.5-3.8,2.7-5.9,4.1c-2.1,1.3-4.5,2.6-7.3,3.4c-2.8,0.8-6,1-9.1,0.3c-1.6-0.4-2.7-0.8-4-1.4c-1.3-0.6-2.7-1.4-3.9-2.4
	c-2.5-2.1-4.1-4.8-5-7.2c-0.5-1.2-0.9-2.3-1.3-3.7c-0.4-1.3-0.3-2-0.3-2.8s0.1-1.5,0.2-2.2c0.4-2.8,1.6-5.6,3.4-7.8
	c0.9-1.1,1.9-2.1,3-2.9c1.1-0.8,2-1.3,3-1.9c4-2.3,8.5-4.8,13.3-4.8c-4.2,2.1-7.3,5.2-10.5,8.4c-0.7,0.8-1.7,1.6-2.3,2.4
	c-0.6,0.7-1.1,1.5-1.5,2.3c-0.7,1.6-1.2,3.4-1.1,5.1c0,0.4,0,0.9,0.1,1.2c0,0.3,0.2,0.8,0.2,0.6c0.4,0.8,0.9,1.9,1.3,2.7
	c1,1.8,1.9,3,3,3.8c0.6,0.4,1.2,0.7,2,1s1.8,0.6,2.5,0.7c1.4,0.2,2.9,0.2,4.5-0.3c1.6-0.4,3.3-1.3,5.1-2.3c1.8-1,3.8-2.3,5.5-3.4
	c3.5-2.3,6.4-4.9,7.5-7.8c1.2-2.9,0.5-6.7-2-10c-2.2-3.2-6.3-5.3-11-5.6c4.4-1.7,10-1,14.3,2.4c2,1.7,3.7,3.8,4.9,6.4
	c1.1,2.6,1.5,5.7,0.9,8.7C1142.4,566.9,1141,569.5,1139.2,571.6z M1216.2,463.7c0.1,12.8-3,25.9-8.6,37.4
	c-2.8,5.8-6.4,11.3-10.5,16.4c-4.2,5-9.1,9.4-14.4,13.1c-10.7,7.4-23.4,11.5-35.8,11.6c11.8-4,22.5-9.7,31.4-17.5
	c8.9-7.7,15.9-17.2,21-27.7c5.2-10.7,8.5-21.9,9.7-33.7c1.2-11.8,0.4-23.9-1.8-36.2C1213,438.2,1216,450.9,1216.2,463.7z
	 M1012.5,284.3c5.2,14.7,10.2,29.5,15.5,44.1c5.2,14.7,10.4,29.4,15.8,44c10.6,29.4,21.6,58.3,35.5,86s30,54.4,47.8,80.1
	c-20.9-23.3-39-49.2-54.3-76.7c-7.7-13.7-14.5-28-20.7-42.4c-6.2-14.5-11.7-29.2-17.1-43.8c-5.3-14.7-10.4-29.5-15.4-44.4
	c-4.8-14.9-9.7-29.8-14.1-44.8c-8.9-30-17-60.2-23.7-90.8C992.3,225.2,1002.3,254.8,1012.5,284.3z M945.8,524.4l-3.8-5.1
	c-5-6.9-9.5-14.2-13.4-21.9c-7.6-15.4-12.8-31.5-17.3-47.6c-2.2-8.1-4.4-16.1-6.5-24.2c-2.2-8-4.1-16.2-5.9-24.4
	c-7.2-32.7-11.7-65.9-13.1-99.2c5.2,32.9,11.7,65.5,20.1,97.5c4.3,15.9,8.9,31.9,13.7,47.8c4.8,15.8,9.8,31.5,17.2,45.9
	c3.6,7.2,7.8,14.2,12.5,20.8l3.6,4.9l3.8,4.9c2.5,3.3,5.1,6.4,7.7,9.5c10.5,12.5,22.6,23.4,36.5,31.6c13.9,8.1,29.6,13.1,45.9,14.2
	c16.3,1.2,32.8-1.7,48.5-7.3c-14.9,7.5-31.6,11.8-48.6,11.9c-4.2,0-8.5-0.2-12.7-0.8l-6.4-0.9c-2.1-0.4-4.2-0.9-6.3-1.4
	c-8.3-2.1-16.4-5.2-23.9-9.3c-15.2-8-28.3-19.5-39.6-32.2c-2.8-3.2-5.5-6.4-8.2-9.7L945.8,524.4z"/>
<path class="st2" d="M526.7,654.2c0-1.1-0.4-2.1-0.9-3.1c-5.3-7.5-14.1-21.1-15.4-25.2c-0.2-2,1.4-10.2,19.5-45.3l0.4-0.9
	c0.3-0.6,0.8-1.3,1.3-2.3c36.2-59.3,22-144.7-41.2-247c6.5-12.1,26.1-56.7-12.4-104.6C438,176,339.5,121,240.6,177.3L251,90.7
	c0.2-1.6-0.3-3.2-1.4-4.3c-3.1-3.3-10.4-8.4-18.4-6c-9.8,3-16.2,15.5-19.7,38.4v0.1l-10.7,87.3c-13,14.7-115.7,136.7-72.8,238.7
	c0.2,0.5,13.2,29.2,37.5,45.2c13.9,9.1,31.6,14.1,52.7,6.9c16.9,18.9,111.2,119.7,213.4,129.1c0.5,0,44.4,1.7,61,26.1
	c0.1,0.1,0.3,0.3,0.4,0.4l9.4,10.9c0.2,0.3,0.5,0.5,0.7,0.7c1.6,1.3,10.1,7.6,17.2,4.2C524.6,666.4,526.8,661.6,526.7,654.2z
	 M377.6,317c-6.7-0.2-13.2,0.5-19.9,0.8c-3.3,0.2-6.5,0.9-9.8,1.4l-4.9,0.7l-4.8,1.2c-3.1,0.9-6.4,1.3-9.4,2.5l-9.3,3.1l-8.9,3.9
	c-3,1.3-5.7,3.1-8.6,4.5c-22.6,12.8-40.8,32.7-54.7,55.4c-13.8,22.9-24.1,48.2-31.2,74.9c1.1-27.6,8.6-55.2,21.3-80.4
	c6.3-12.7,14.4-24.5,24-35.2c9.6-10.7,20.9-19.9,33.5-27.3c3.2-1.7,6.4-3.6,9.7-5l10-4.2l10.3-3.3c1.8-0.6,3.5-1,5.2-1.3l5.3-1.1
	c14.2-2.6,28.6-3.6,42.6-2c28.2,2.3,55.3,10.9,79.9,23.4C431.2,322.1,404.2,317,377.6,317z"/>
</svg>
