<?xml version="1.0" encoding="utf-8"?>
<!-- Generator: Adobe Illustrator 25.4.1, SVG Export Plug-In . SVG Version: 6.00 Build 0)  -->
<svg version="1.1" id="Layer_1" xmlns="http://www.w3.org/2000/svg" xmlns:xlink="http://www.w3.org/1999/xlink" x="0px" y="0px"
	 viewBox="0 0 720 720" style="enable-background:new 0 0 720 720;" xml:space="preserve">
<style type="text/css">
	.st0{fill:#EAA94B;}
</style>
<path class="st0" d="M312.9,598.1c0.1-0.2,5.2-19,17.2-19.6c0.1,0,0.2,0,0.3,0c1.8,1,6.8,5.1,3.8,16.7c-1.8,7,0.2,12.9,5.3,16.1
	c10.1,6.2,29,0.4,45.8-14.3l3.1-2.7c24-20.9,56.9-49.4,54.4-92.2c0-0.5-0.1-12.4,10.9-13l0,0c11-0.5,13.2,5.4,16,12.9l0.6,1.7
	c1.8,4.6,9.8,8.8,20.2,8.1c20.2-1.5,57.9-21.8,83.8-140.7c0.2-1.3,5.6-32.9-15-68.4c-0.2-1.6-0.4-6.1,2-8.8c1.8-2,4.9-2.8,9.3-2.5
	c12.2,1,25.8,1.2,32.7-8c5.7-7.7,5.1-20-1.8-37.6c-13-33.1-29.5-51.3-40.4-63.3c-2.6-2.8-4.8-5.3-6.7-7.6
	c0-11.8-1.5-87.5-28.6-142.4c-1.4-4.3-5.9-9.7-12.7-7.7c-1,0.3-1.8,0.9-2.4,1.8c-0.3,0.5-3,5.3,0.5,12.7
	c2.5,5.3,20.8,53.1,23.8,96.7c-0.6,2.3-4.8,14.2-27.4,18.5c-14.6,2.8-87.4,18.4-84.3,53.9c2.3,26.2,8.2,32.7,15.7,40.8
	c0.9,1,1.8,2,2.8,3c2.6,2.9,5.5,7.2,4.8,10.7c-0.5,2.7-3.2,5.2-7.8,7.5c-29.3,14.4-58,19.5-85.4,15c-40.8-6.6-48.4,12.9-53,24.5
	c-0.4,0.9-0.7,1.9-1.1,2.7c-5.8,13.7-3.4,45.8,17.7,57.3c10.2,5.6,14.7,15.5,15.5,23c0.6,5.9-0.9,11.2-3.9,13.7
	c-7.7,6.6-33.5,12.3-81.2-7.6c-18.5-7.7-37.4-7.1-54.5,1.8c-20.8,10.8-35.4,32.1-38.6,46.6c-4.5,20.3,2.1,30.7,9.8,42.8
	c0.9,1.5,1.9,3,2.9,4.6c5,8.1,5.5,11,5,12c-0.2,0.5-1.5,2.1-9.4,3.3c-21.6,3.3-71.5,15-69.6,51.4c2,37.4,28.4,39.4,47.7,40.9
	l1.2,0.1c10.2,0.8,13.1,2.2,13.9,2.7c-0.2,0.6-1,2.1-4,5.2c-5.7,5.9-9.6,19.1-5.4,32c3.4,10.3,12.9,23.5,38.9,27.8
	c6.7,1.1,13.6,1.5,20.5,1.1c42.7-2,86.2-30.6,107-72.6C312.7,598.6,312.8,598.4,312.9,598.1z M219.5,558.1
	c38-16.7,74.8-35.7,109.4-58c34.7-22.2,66.8-48,95.5-77.2c14.3-14.7,27.6-30.2,40-46.6c12.4-16.3,23.6-33.5,33.6-51.4
	c10-17.9,18.8-36.5,26.2-55.7s13.6-39,17.3-59.4c-1.3,20.8-6.1,41.2-12.2,61.2c-6.3,19.9-14.2,39.4-23.8,58
	c-9.4,18.7-20.6,36.5-32.9,53.6c-12.3,17-26,33-40.5,48.1c-7.5,7.3-14.9,14.8-22.9,21.6c-7.7,7.1-15.9,13.6-24.1,20.2
	c-16.7,12.6-33.8,24.7-52,35.1C297.4,528.7,259.1,545.7,219.5,558.1z"/>
</svg>
